<?xml version="1.0" encoding="UTF-8" standalone="no"?>
<!-- Created with Inkscape (http://www.inkscape.org/) -->

<svg
   xmlns:dc="http://purl.org/dc/elements/1.1/"
   xmlns:cc="http://creativecommons.org/ns#"
   xmlns:rdf="http://www.w3.org/1999/02/22-rdf-syntax-ns#"
   xmlns:svg="http://www.w3.org/2000/svg"
   xmlns="http://www.w3.org/2000/svg"
   xmlns:sodipodi="http://sodipodi.sourceforge.net/DTD/sodipodi-0.dtd"
   xmlns:inkscape="http://www.inkscape.org/namespaces/inkscape"
   width="416mm"
   height="415mm"
   viewBox="0 0 416.00001 415.00001"
   version="1.1"
   id="svg1065"
   inkscape:version="0.92.4 5da689c313, 2019-01-14"
   sodipodi:docname="icon.svg">
  <defs
     id="defs1059" />
  <sodipodi:namedview
     id="base"
     pagecolor="#ffffff"
     bordercolor="#666666"
     borderopacity="1.0"
     inkscape:pageopacity="0.0"
     inkscape:pageshadow="2"
     inkscape:zoom="0.35"
     inkscape:cx="734.81299"
     inkscape:cy="723.18155"
     inkscape:document-units="mm"
     inkscape:current-layer="layer1"
     showgrid="false"
     inkscape:window-width="1920"
     inkscape:window-height="1010"
     inkscape:window-x="0"
     inkscape:window-y="35"
     inkscape:window-maximized="1" />
  <metadata
     id="metadata1062">
    <rdf:RDF>
      <cc:Work
         rdf:about="">
        <dc:format>image/svg+xml</dc:format>
        <dc:type
           rdf:resource="http://purl.org/dc/dcmitype/StillImage" />
        <dc:title></dc:title>
      </cc:Work>
    </rdf:RDF>
  </metadata>
  <g
     inkscape:label="Layer 1"
     inkscape:groupmode="layer"
     id="layer1"
     transform="translate(211.4282,74.824885)">
    <g
       style="display:inline;opacity:1;fill:#ffffff;fill-opacity:1;enable-background:new"
       id="g1117"
       transform="matrix(1.0213208,-0.00915893,0.00915893,1.0213208,246.35319,205.81668)"
       inkscape:export-xdpi="27.950607"
       inkscape:export-ydpi="27.950607">
      <path
         inkscape:connector-curvature="0"
         style="fill:#ffffff;fill-opacity:1"
         id="path3023-5-0-1-1-70-6"
         transform="translate(-295.02803,-179.54161)"
         d="M -0.26718054,-11.475051 C 12.689947,34.521449 26.2002,93.1046 37.6122,139.592 c 5.1434,20.951 11.7854,40.212 16.4585,61.311 4.3917,-21.421 8.0797,-44.56 13.0167,-65.794 C 77.5698,90.0255 95.121139,34.007011 110.49714,-9.3239394 94.516739,7.2245106 75.5298,34.5276 58.5681,50.1774 57.895375,51.667045 54.213241,71.666316 53.6826,73.6908 L 49.3305,50.2983 Z" />
      <path
         inkscape:connector-curvature="0"
         style="fill:#ffffff;fill-opacity:1"
         id="path3021-0-3-9-1-07-1"
         transform="translate(-354.01756,-167.58515)"
         d="M 1.1466719,-4.0606591 C 25.079576,39.298353 50.7749,86.0388 74.7826,129.5 84.5129,147.115 95.8149,163.073 105.178,180.901 101.023,162.388 94.9335,145.71 90.4063,127.328 82.0419,93.3652 74.7158,57.8823 64.4774,24.5701 L 63.867,24.3272 C 44.0229,16.419 21.696272,3.9753809 1.1466719,-4.0606591 Z" />
      <path
         inkscape:connector-curvature="0"
         style="fill:#ffffff;fill-opacity:1"
         id="path3019-8-2-6-9-8-5"
         transform="translate(-232.14652,-161.73625)"
         d="M 102.01631,-5.8843901 C 83.003212,1.0950899 56.2485,15.4089 37.8618,22.1364 l -0.6283,0.2287 C 27.4225,53.6616 17.4866,85.5374 9.95091,117.73 5.90242,135.025 3.65931,152.399 0,169.852 8.12586,153.699 15.4228,135.792 23.8233,119.787 45.8326,77.8533 74.323012,32.65321 102.01631,-5.8843901 Z" />
      <path
         inkscape:connector-curvature="0"
         style="fill:#ffffff;fill-opacity:1"
         id="path3017-3-8-3-1-1-6"
         transform="translate(-405.72324,-136.31828)"
         d="M 2.9670843,-0.7135633 C 36.487233,33.887117 70.2812,67.1268 104.238,102.253 c 14.087,14.572 29.743,27.614 43.441,42.645 -8.516,-16.112 -18.946,-30.36 -27.766,-46.2833 C 102.196,66.6321 85.57,33.2937 66.1866,2.33344 L 64.4653,2.27124 C 42.977,1.5145 24.455984,0.0440367 2.9670843,-0.7132033 Z" />
      <path
         inkscape:connector-curvature="0"
         style="fill:#ffffff;fill-opacity:1"
         id="path3015-5-0-6-38-5-4"
         transform="translate(-229.35769,-131.79249)"
         d="M 148.205,0 C 126.133,1.38769 101.77,3.10061 80.2568,4.40623 l -1.3764,0.0841 C 60.6243,32.8061 43.2218,60.4731 27.4513,90.4246 17.8029,108.749 9.32206,129.042 0,147.601 15.0915,130.104 29.4684,110.895 45.2963,93.752 76.205,60.2753 110.144,29.6702 148.205,1.8e-4 Z" />
      <path
         inkscape:connector-curvature="0"
         style="fill:#ffffff;fill-opacity:1"
         id="path3013-6-3-8-74-37-73"
         transform="translate(-447.64619,-102.22608)"
         d="M 0.67980163,13.268461 C 41.795802,32.338861 79.2542,56.0107 117.646,79.3232 144.063,95.364 171.537,110.163 196.402,126.64 178.853,107.176 158.669,89.3002 139.856,70.0162 116.783,46.3651 95.311577,21.895816 71.838677,0.4026156 47.288186,4.6184989 21.712992,9.5678911 0.67980163,13.268461 Z" />
      <path
         inkscape:connector-curvature="0"
         style="fill:#ffffff;fill-opacity:1"
         id="path3011-5-7-4-9-5-2"
         transform="translate(-225.41391,-99.339047)"
         d="M 114.527,0 C 90.9493,20.8523 68.3148,40.9536 47.5234,63.3831 30.9274,81.2865 15.8286,101.319 0,119.677 22.5575,104.19 44.5906,87.1117 68.4939,72.3675 104.343,50.2549 141.98174,31.511715 184.31474,13.129015 161.75074,9.0444952 136.362,3.98246 114.828,0.055326 Z" />
      <path
         inkscape:connector-curvature="0"
         style="fill:#ffffff;fill-opacity:1"
         id="path1369-35-0-1-9-7-3-0-9"
         transform="matrix(0.41883103,0,0,0.41970286,-448.50699,-84.093341)"
         d="M 2.7809949,18.948539 444.962,295.773 l -4.085,14.739 c 34.655,0.597 78.005,0.826 112.188,0.573 L 548.284,296.306 973.1265,23.358367 973.24238,7.7520361 551.837,280.755 c -9.987,15.238 -39.386,16.745 -55.078,18.406 -21.535,-2.179 -46.799,-4.403 -55.298,-18.514 L 2.4739249,0.0221394 Z M 497.225,263.721 c -21.483,0 -38.898,6.448 -38.899,14.402 0,7.955 17.414,14.405 38.899,14.405 21.485,0 38.902,-6.449 38.9,-14.405 0,-7.954 -17.417,-14.402 -38.9,-14.402 z" />
    </g>
  </g>
</svg>
